<svg xmlns="http://www.w3.org/2000/svg" xmlns:xlink="http://www.w3.org/1999/xlink"><symbol id="bar-chart-4" viewBox="0 0 24 24"><path d="M12 20v-6M6 20V10M18 20V4"/></symbol><symbol id="check" viewBox="0 0 24 24"><polyline points="20 6 9 17 4 12"/></symbol><symbol id="heart" viewBox="0 0 24 24"><path d="M20.84 4.61a5.5 5.5 0 0 0-7.78 0L12 5.67l-1.06-1.06a5.5 5.5 0 0 0-7.78 7.78l1.06 1.06L12 21.23l7.78-7.78 1.06-1.06a5.5 5.5 0 0 0 0-7.78z"/></symbol><symbol id="star" viewBox="0 0 475.075 475.075">
<g>
	<path d="M475.075,186.573c0-7.043-5.328-11.42-15.992-13.135L315.766,152.6L251.529,22.694c-3.614-7.804-8.281-11.704-13.99-11.704
		c-5.708,0-10.372,3.9-13.989,11.704L159.31,152.6L15.986,173.438C5.33,175.153,0,179.53,0,186.573c0,3.999,2.38,8.567,7.139,13.706
		l103.924,101.068L86.51,444.096c-0.381,2.666-0.57,4.575-0.57,5.712c0,3.997,0.998,7.374,2.996,10.136
		c1.997,2.766,4.993,4.142,8.992,4.142c3.428,0,7.233-1.137,11.42-3.423l128.188-67.386l128.197,67.386
		c4.004,2.286,7.81,3.423,11.416,3.423c3.819,0,6.715-1.376,8.713-4.142c1.992-2.758,2.991-6.139,2.991-10.136
		c0-2.471-0.096-4.374-0.287-5.712l-24.555-142.749l103.637-101.068C472.604,195.33,475.075,190.76,475.075,186.573z"/>
</g>
<g>
</g>
<g>
</g>
<g>
</g>
<g>
</g>
<g>
</g>
<g>
</g>
<g>
</g>
<g>
</g>
<g>
</g>
<g>
</g>
<g>
</g>
<g>
</g>
<g>
</g>
<g>
</g>
<g>
</g>
</symbol><symbol id="x" viewBox="0 0 24 24"><line x1="18" y1="6" x2="6" y2="18"/><line x1="6" y1="6" x2="18" y2="18"/></symbol></svg>